<?xml version="1.0" standalone="no"?>
<!DOCTYPE svg PUBLIC "-//W3C//DTD SVG 20010904//EN"
 "http://www.w3.org/TR/2001/REC-SVG-20010904/DTD/svg10.dtd">
<svg version="1.0" xmlns="http://www.w3.org/2000/svg"
 width="649.000000pt" height="738.000000pt" viewBox="0 0 649.000000 738.000000"
 preserveAspectRatio="xMidYMid meet">

<g transform="translate(0.000000,738.000000) scale(0.100000,-0.100000)"
fill="#000000" stroke="none">
<path d="M2910 7279 c-96 -56 -193 -111 -215 -124 -22 -12 -137 -78 -255 -147
-118 -69 -235 -136 -260 -150 -25 -14 -524 -303 -1110 -641 l-1065 -616 -3
-1782 c-2 -1559 0 -1780 13 -1776 8 4 204 116 437 250 233 134 808 466 1278
737 470 271 899 517 953 548 53 31 97 59 97 63 0 14 -163 171 -231 222 -69 51
-592 360 -794 468 -114 61 -189 75 -289 54 -120 -25 -219 -102 -273 -213 l-28
-57 -3 -447 -3 -447 -173 -100 c-95 -56 -178 -101 -185 -101 -8 0 -10 266 -9
1041 l3 1041 910 525 c500 289 915 528 922 530 10 4 13 -39 13 -201 l0 -207
-57 -35 c-48 -29 -189 -111 -643 -372 -73 -42 -137 -109 -173 -181 -30 -61
-32 -73 -32 -166 0 -93 2 -105 32 -166 19 -39 52 -84 80 -110 61 -57 795 -480
918 -530 91 -37 251 -79 299 -79 l26 0 0 1635 c0 899 -1 1635 -3 1635 -1 0
-81 -45 -177 -101z"/>
<path d="M3400 5741 l0 -1638 73 13 c145 27 253 66 402 147 269 145 734 423
773 460 133 129 150 358 36 506 -48 62 -71 77 -459 301 -193 111 -356 207
-362 212 -10 8 -13 62 -13 209 0 109 3 200 8 202 4 3 354 -195 777 -439 424
-245 835 -482 915 -528 l145 -84 3 -1041 c1 -739 -1 -1041 -9 -1041 -14 0
-342 190 -351 204 -4 6 -8 200 -8 432 0 463 -2 478 -61 568 -71 107 -189 169
-324 169 -89 1 -130 -14 -275 -97 -41 -24 -91 -53 -110 -63 -239 -136 -508
-294 -561 -329 -72 -48 -180 -142 -249 -217 -35 -39 -41 -50 -29 -58 8 -5 145
-84 304 -176 321 -184 1921 -1106 2246 -1294 114 -65 209 -119 213 -119 3 0 5
802 4 1781 l-3 1781 -615 355 c-338 196 -1031 596 -1539 889 -508 294 -925
534 -927 534 -2 0 -4 -737 -4 -1639z"/>
<path d="M2935 3381 c-6 -5 -53 -33 -105 -63 -213 -123 -941 -543 -1025 -592
-49 -29 -214 -124 -365 -211 -151 -87 -385 -222 -520 -300 -135 -78 -356 -206
-492 -284 -137 -79 -248 -144 -248 -146 0 -2 26 -18 58 -36 31 -18 226 -130
432 -249 206 -119 569 -329 805 -465 237 -137 735 -425 1108 -641 l677 -392
658 380 c361 209 947 548 1302 753 355 205 752 434 883 510 131 76 235 141
230 146 -4 4 -78 48 -163 97 -136 78 -1518 877 -2319 1339 -156 91 -287 161
-291 156 -15 -17 -58 -141 -79 -223 -11 -47 -25 -134 -31 -195 -13 -140 -13
-858 0 -948 23 -160 132 -280 295 -323 135 -37 172 -23 638 247 l399 230 171
-99 c95 -54 172 -104 172 -111 0 -7 -297 -183 -660 -393 -363 -209 -780 -449
-927 -534 -147 -85 -271 -154 -276 -154 -5 0 -238 132 -518 293 -280 162 -699
403 -932 537 -232 134 -421 247 -419 253 1 5 80 54 175 109 l171 99 368 -212
c472 -272 474 -273 583 -273 64 0 99 6 143 23 81 32 168 115 210 200 l32 66 3
465 c4 577 -4 660 -86 878 -26 69 -37 82 -57 63z"/>
</g>
</svg>
